<?xml version="1.0" encoding="UTF-8" standalone="no"?>
<svg
   xmlns:dc="http://purl.org/dc/elements/1.1/"
   xmlns:cc="http://creativecommons.org/ns#"
   xmlns:rdf="http://www.w3.org/1999/02/22-rdf-syntax-ns#"
   xmlns:svg="http://www.w3.org/2000/svg"
   xmlns="http://www.w3.org/2000/svg"
   xmlns:sodipodi="http://sodipodi.sourceforge.net/DTD/sodipodi-0.dtd"
   xmlns:inkscape="http://www.inkscape.org/namespaces/inkscape"
   fill="#000000"
   height="24"
   viewBox="0 0 24 24"
   width="24"
   id="svg3104"
   version="1.1"
   inkscape:version="0.48.5 r10040"
   sodipodi:docname="ic_shopping_cart_black_24px.svg">
  <metadata
     id="metadata3114">
    <rdf:RDF>
      <cc:Work
         rdf:about="">
        <dc:format>image/svg+xml</dc:format>
        <dc:type
           rdf:resource="http://purl.org/dc/dcmitype/StillImage" />
      </cc:Work>
    </rdf:RDF>
  </metadata>
  <defs
     id="defs3112" />
  <sodipodi:namedview
     pagecolor="#ffffff"
     bordercolor="#666666"
     borderopacity="1"
     objecttolerance="10"
     gridtolerance="10"
     guidetolerance="10"
     inkscape:pageopacity="0"
     inkscape:pageshadow="2"
     inkscape:window-width="640"
     inkscape:window-height="480"
     id="namedview3110"
     showgrid="false"
     inkscape:snap-global="false"
     inkscape:zoom="10"
     inkscape:cx="20.3036"
     inkscape:cy="14.715158"
     inkscape:current-layer="svg3104">
    <inkscape:grid
       type="xygrid"
       id="grid3900" />
  </sodipodi:namedview>
  <rect
     style="color:#000000;fill:#00aad4;fill-opacity:1;fill-rule:nonzero;stroke:#00ccff;stroke-width:1.01464236;stroke-linecap:butt;stroke-linejoin:miter;stroke-miterlimit:4;stroke-opacity:1;stroke-dasharray:none;stroke-dashoffset:0;marker:none;visibility:visible;display:inline;overflow:visible;enable-background:accumulate"
     id="rect3120"
     width="22.717873"
     height="22.78252"
     x="0.67212927"
     y="0.6471293"
     ry="1.9460067" />
  <path
     d="m 7.9,18 c -1.1,0 -1.99,0.9 -1.99,2 0,1.1 0.89,2 1.99,2 1.1,0 2,-0.9 2,-2 0,-1.1 -0.9,-2 -2,-2 z M 1.9,2 v 2 h 2 l 3.6,7.59 -1.35,2.45 C 5.99,14.32 5.9,14.65 5.9,15 c 0,1.1 0.9,2 2,2 h 12 V 15 H 8.32 C 8.18,15 8.07,14.89 8.07,14.75 L 8.1,14.63 9,13 h 7.45 c 0.75,0 1.41,-0.41 1.75,-1.03 L 21.78,5.48 C 21.86,5.34 21.9,5.17 21.9,5 21.9,4.45 21.45,4 20.9,4 H 6.11 L 5.17,2 H 1.9 z m 16,16 c -1.1,0 -1.99,0.9 -1.99,2 0,1.1 0.89,2 1.99,2 1.1,0 2,-0.9 2,-2 0,-1.1 -0.9,-2 -2,-2 z"
     id="path3106"
     style="fill:#d5f6ff;fill-opacity:1"
     inkscape:connector-curvature="0" />
  <path
     d="M0 0h24v24H0z"
     fill="none"
     id="path3108" />
</svg>
